<svg xmlns="http://www.w3.org/2000/svg" width="750" height="457" viewBox="0 0 750 457">
  <g fill="none" fill-rule="evenodd">
    <rect width="750" height="457" fill="#FFF"/>
    <g transform="translate(10 10)">
      <g stroke="#000" transform="translate(.6)">
        <polygon fill="#FFF" fill-rule="nonzero" stroke-width="3" points="250 433.51 0 .5 500 .5"/>
        <line x1="35.22" x2="464.78" y1="61.5" y2="61.5" stroke-width="3"/>
        <line x1="70.86" x2="428.69" y1="124" y2="124" stroke-width="3"/>
        <line x1="107.39" x2="392.61" y1="186.51" y2="186.51" stroke-width="3"/>
        <line x1="143.47" x2="356.52" y1="249.01" y2="249.01" stroke-width="3"/>
        <line x1="179.56" x2="320.44" y1="311.51" y2="311.51" stroke-width="3"/>
        <line x1="214.83" x2="284.35" y1="374.01" y2="374.01" stroke-width="3"/>
        <line x1="308" x2="308" y1="87.5" y2="88.17" stroke-width="2"/>
        <line x1="464.78" x2="470.78" y1="61.5" y2="61.5"/>
        <line x1="482.79" x2="717.08" y1="61.5" y2="61.5" stroke-dasharray="12.015 12.015"/>
        <line x1="719.09" x2="725.09" y1="61.5" y2="61.5"/>
        <line x1="428.69" x2="434.69" y1="124" y2="124"/>
        <line x1="447.04" x2="712.49" y1="124" y2="124" stroke-dasharray="12.347 12.347"/>
        <line x1="718.66" x2="724.66" y1="124" y2="124"/>
        <line x1="392.61" x2="398.61" y1="186.51" y2="186.51"/>
        <line x1="410.46" x2="712.74" y1="186.51" y2="186.51" stroke-dasharray="11.854 11.854"/>
        <line x1="718.66" x2="724.66" y1="186.51" y2="186.51"/>
        <line x1="356.52" x2="362.52" y1="249.01" y2="249.01"/>
        <line x1="374.8" x2="712.52" y1="249.01" y2="249.01" stroke-dasharray="12.281 12.281"/>
        <line x1="718.66" x2="724.66" y1="249.01" y2="249.01"/>
        <line x1="320.44" x2="326.44" y1="311.51" y2="311.51"/>
        <line x1="338.32" x2="712.72" y1="311.51" y2="311.51" stroke-dasharray="11.886 11.886"/>
        <line x1="718.66" x2="724.66" y1="311.51" y2="311.51"/>
        <line x1="284.35" x2="290.35" y1="374.01" y2="374.01"/>
        <line x1="302.59" x2="712.55" y1="374.01" y2="374.01" stroke-dasharray="12.238 12.238"/>
        <line x1="718.66" x2="724.66" y1="374.01" y2="374.01"/>
        <line x1="250" x2="256" y1="435.51" y2="435.51"/>
        <line x1="267.97" x2="717.1" y1="435.51" y2="435.51" stroke-dasharray="11.977 11.977"/>
        <line x1="719.09" x2="725.09" y1="435.51" y2="435.51"/>
        <line x1="500" x2="506" y1=".5" y2=".5"/>
        <line x1="518.51" x2="712.41" y1=".5" y2=".5" stroke-dasharray="12.51 12.51"/>
        <line x1="718.66" x2="724.66" y1=".5" y2=".5"/>
      </g>
      <g fill="#000" fill-rule="nonzero" font-family="Helvetica-Bold, Helvetica" font-size="24" font-weight="bold" transform="translate(527.26 16.57)">
        <text>
          <tspan x="59.668" y="397">UTILITIES</tspan>
        </text>
        <text>
          <tspan x=".992" y="334">COMPONENTS</tspan>
        </text>
        <text>
          <tspan x="90.758" y="85">TOOLS</tspan>
        </text>
        <text>
          <tspan x="63.652" y="147">GENERIC</tspan>
        </text>
        <text>
          <tspan x="42.324" y="209">ELEMENTS</tspan>
        </text>
        <text>
          <tspan x="59.645" y="271">OBJECTS</tspan>
        </text>
        <text>
          <tspan x="52.988" y="23">SETTINGS</tspan>
        </text>
      </g>
    </g>
    <g fill-rule="nonzero" transform="translate(169 71)">
      <circle cx="88.636" cy="94.091" r="88.636" fill="#1C1C20"/>
      <g transform="rotate(-45 99.068 8.417)">
        <polygon fill="#BAFFA9" points="57.835 84.958 57.835 70.998 76.183 59.83 57.835 48.263 57.835 34.701 99.716 59.83"/>
        <polygon fill="#7ACB16" points="0 119.659 0 0 41.881 25.128 41.881 38.69 11.966 20.741 11.966 47.864 31.51 59.83 11.966 71.397 11.966 98.519 41.881 80.57 41.881 94.531"/>
      </g>
    </g>
  </g>
</svg>
