<svg xmlns="http://www.w3.org/2000/svg" width="732" height="438" viewBox="0 0 732 438">
  <g fill="none" fill-rule="evenodd" transform="translate(2 1)">
    <polygon fill="#FFF" fill-rule="nonzero" stroke="#000" stroke-width="3" points="250.6 433.51 .6 .5 500.6 .5"/>
    <path stroke="#000" stroke-width="3" d="M35.82 61.5L465.38 61.5M71.46 124L429.29 124M107.99 186.51L393.21 186.51M144.07 249.01L357.12 249.01M180.16 311.51L321.04 311.51M215.43 374.01L284.95 374.01"/>
    <path stroke="#000" stroke-width="2" d="M308.6,87.5 L308.6,88.17"/>
    <path stroke="#000" d="M465.38,61.5 L471.38,61.5"/>
    <path stroke="#000" stroke-dasharray="12.015 12.015" d="M483.39,61.5 L717.68,61.5"/>
    <path stroke="#000" d="M723.69 61.5L729.69 61.5M429.29 124L435.29 124"/>
    <path stroke="#000" stroke-dasharray="12.347 12.347" d="M447.64,124 L713.09,124"/>
    <path stroke="#000" d="M719.26 124L725.26 124M393.21 186.51L399.21 186.51"/>
    <path stroke="#000" stroke-dasharray="11.854 11.854" d="M411.06,186.51 L713.34,186.51"/>
    <path stroke="#000" d="M719.26 186.51L725.26 186.51M357.12 249.01L363.12 249.01"/>
    <path stroke="#000" stroke-dasharray="12.281 12.281" d="M375.4,249.01 L713.12,249.01"/>
    <path stroke="#000" d="M719.26 249.01L725.26 249.01M321.04 311.51L327.04 311.51"/>
    <path stroke="#000" stroke-dasharray="11.886 11.886" d="M338.92,311.51 L713.32,311.51"/>
    <path stroke="#000" d="M719.26 311.51L725.26 311.51M284.95 374.01L290.95 374.01"/>
    <path stroke="#000" stroke-dasharray="12.238 12.238" d="M303.19,374.01 L713.15,374.01"/>
    <path stroke="#000" d="M719.26 374.01L725.26 374.01M250.6 435.51L256.6 435.51"/>
    <path stroke="#000" stroke-dasharray="11.977 11.977" d="M268.57,435.51 L717.7,435.51"/>
    <path stroke="#000" d="M723.69 435.51L729.69 435.51M500.6.5L506.6.5"/>
    <path stroke="#000" stroke-dasharray="12.51 12.51" d="M519.11,0.5 L713.01,0.5"/>
    <path stroke="#000" d="M719.26,0.5 L725.26,0.5"/>
    <text fill="#000" font-family="Helvetica" font-size="24">
      <tspan x="576.89" y="412.97">UTILITIES</tspan>
    </text>
    <text fill="#000" font-family="Helvetica" font-size="24">
      <tspan x="516.26" y="351.57">COMPONENTS</tspan>
    </text>
    <text fill="#000" font-family="Helvetica" font-size="24">
      <tspan x="609.44" y="102.97">TOOLS</tspan>
    </text>
    <text fill="#000" font-family="Helvetica" font-size="24">
      <tspan x="585.39" y="166.37">GENERIC</tspan>
    </text>
    <text fill="#000" font-family="Helvetica" font-size="24">
      <tspan x="564.96" y="227.77">ELEMENTS</tspan>
    </text>
    <text fill="#000" font-family="Helvetica" font-size="24">
      <tspan x="589.17" y="289.17">OBJECTS</tspan>
    </text>
    <text fill="#000" font-family="Helvetica" font-size="24">
      <tspan x="577.28" y="43.57">SETTINGS</tspan>
    </text>
    <g fill-rule="nonzero" transform="translate(164 61)">
      <circle cx="88.636" cy="94.091" r="88.636" fill="#1C1C20"/>
      <g transform="rotate(-45 99.068 8.417)">
        <polygon fill="#BAFFA9" points="57.835 84.958 57.835 70.998 76.183 59.83 57.835 48.263 57.835 34.701 99.716 59.83"/>
        <polygon fill="#7ACB16" points="0 119.659 0 0 41.881 25.128 41.881 38.69 11.966 20.741 11.966 47.864 31.51 59.83 11.966 71.397 11.966 98.519 41.881 80.57 41.881 94.531"/>
      </g>
    </g>
  </g>
</svg>
